<?xml version="1.0" encoding="utf-8"?>
<!-- Generator: Adobe Illustrator 25.2.3, SVG Export Plug-In . SVG Version: 6.00 Build 0)  -->
<svg version="1.1" id="レイヤー_1" xmlns="http://www.w3.org/2000/svg" xmlns:xlink="http://www.w3.org/1999/xlink" x="0px"
	 y="0px" viewBox="0 0 200 42" style="enable-background:new 0 0 200 42;" xml:space="preserve">
<style type="text/css">
	.st0{fill:#FFF8DC;}
	.st1{font-family:'HiraMinPro-W3-83pv-RKSJ-H';}
	.st2{font-size:34px;}
	.st3{fill:none;stroke:#DDA520;stroke-width:0.25;stroke-miterlimit:10;}
	.st4{fill:#FF0000;}
	.st5{font-family:'HanziPenSC-W3-GBpc-EUC-H';}
	.st6{fill:none;stroke:#FAC800;stroke-width:0.25;stroke-miterlimit:10;}
	.st7{font-size:33px;}
</style>
<text transform="matrix(0.7031 0 0 1 61.291 28.9697)" class="st0 st1 st2">CP</text>
<text transform="matrix(0.7031 0 0 1 61.291 28.9697)" class="st3 st1 st2">CP</text>
<text transform="matrix(0.7031 0 0 1 91.3916 23.5781)" class="st4 st5 st2">　</text>
<text transform="matrix(0.7031 0 0 1 91.3916 23.5781)" class="st6 st5 st2">　</text>
<text transform="matrix(0.7031 0 0 1 102.4668 28.9697)" class="st0 st1 st2">T</text>
<text transform="matrix(0.7031 0 0 1 102.4668 28.9697)" class="st3 st1 st2">T</text>
<text transform="matrix(0.7031 0 0 1 116.9766 28.9697)" class="st0 st1 st2">e</text>
<text transform="matrix(0.7031 0 0 1 116.9766 28.9697)" class="st3 st1 st2">e</text>
<text transform="matrix(0.7031 0 0 1 129.7656 28.9697)" class="st0 st1 st2">a</text>
<text transform="matrix(0.7031 0 0 1 129.7656 28.9697)" class="st3 st1 st2">a</text>
<text transform="matrix(0.7031 0 0 1 142.7949 28.9697)" class="st0 st1 st2">m</text>
<text transform="matrix(0.7031 0 0 1 142.7949 28.9697)" class="st3 st1 st2">m</text>
<text transform="matrix(0.7031 0 0 1 164.2852 28.9697)" class="st0 st1 st2">1</text>
<text transform="matrix(0.7031 0 0 1 164.2852 28.9697)" class="st3 st1 st2">1</text>
<text transform="matrix(0.7031 0 0 1 174.5645 28.3242)" class="st0 st1 st2">!</text>
<text transform="matrix(0.7031 0 0 1 174.5645 28.3242)" class="st3 st1 st2">!</text>
<text transform="matrix(1 -1.359432e-03 1.359432e-03 1 -0.731 28.9694)" class="st0 st1 st7">福</text>
<text transform="matrix(1 -1.359432e-03 1.359432e-03 1 -0.731 28.9694)" class="st3 st1 st7">福</text>
<text transform="matrix(1 -1.359432e-03 1.359432e-03 1 31.8403 28.9251)" class="st0 st1 st7">岡</text>
<text transform="matrix(1 -1.359432e-03 1.359432e-03 1 31.8403 28.9251)" class="st3 st1 st7">岡</text>
</svg>
